HIERARCHY
ROOT root
{
	OFFSET 0.000000 0.000000 0.000000
	CHANNELS 6 Xposition Yposition Zposition Zrotation Yrotation Xrotation
	JOINT lhip
	{
		OFFSET 0.058581 -0.082280 -0.017664
		CHANNELS 3 Zrotation Yrotation Xrotation
		JOINT lknee
		{
			OFFSET 0.043451 -0.386469 0.008037
			CHANNELS 3 Zrotation Yrotation Xrotation
			JOINT lankle
			{
				OFFSET -0.014790 -0.426874 -0.037428
				CHANNELS 3 Zrotation Yrotation Xrotation
				JOINT ltoe
				{
					OFFSET 0.041054 -0.060286 0.122042
					CHANNELS 3 Zrotation Yrotation Xrotation
					End Site
					{
						OFFSET 0.000000 0.000000 0.000000
					}
				}
			}
		}
	}
	JOINT rhip
	{
		OFFSET -0.060310 -0.090513 -0.013543
		CHANNELS 3 Zrotation Yrotation Xrotation
		JOINT rknee
		{
			OFFSET -0.043257 -0.383688 -0.004843
			CHANNELS 3 Zrotation Yrotation Xrotation
			JOINT rankle
			{
				OFFSET 0.019056 -0.420046 -0.034562
				CHANNELS 3 Zrotation Yrotation Xrotation
				JOINT rtoe
				{
					OFFSET -0.034840 -0.062106 0.130323
					CHANNELS 3 Zrotation Yrotation Xrotation
					End Site
					{
						OFFSET 0.000000 0.000000 0.000000
					}
				}
			}
		}
	}
	JOINT lowerback
	{
		OFFSET 0.004439 0.124404 -0.038385
		CHANNELS 3 Zrotation Yrotation Xrotation
		JOINT upperback
		{
			OFFSET 0.004488 0.137956 0.026820
			CHANNELS 3 Zrotation Yrotation Xrotation
			JOINT chest
			{
				OFFSET -0.002265 0.056032 0.002855
				CHANNELS 3 Zrotation Yrotation Xrotation
				JOINT lowerneck
				{
					OFFSET -0.013390 0.211636 -0.033468
					CHANNELS 3 Zrotation Yrotation Xrotation
					JOINT upperneck
					{
						OFFSET 0.010113 0.088937 0.050410
						CHANNELS 3 Zrotation Yrotation Xrotation
						End Site
						{
							OFFSET 0.000000 0.000000 0.000000
						}
					}
				}
				JOINT lclavicle
				{
					OFFSET 0.071702 0.114000 -0.018898
					CHANNELS 3 Zrotation Yrotation Xrotation
					JOINT lshoulder
					{
						OFFSET 0.122921 0.045205 -0.019046
						CHANNELS 3 Zrotation Yrotation Xrotation
						JOINT lelbow
						{
							OFFSET 0.255332 -0.015649 -0.022946
							CHANNELS 3 Zrotation Yrotation Xrotation
							JOINT lwrist
							{
								OFFSET 0.265709 0.012698 -0.007375
								CHANNELS 3 Zrotation Yrotation Xrotation
								End Site
								{
									OFFSET 0.000000 0.000000 0.000000
								}
							}
						}
					}
				}
				JOINT rclavicle
				{
					OFFSET -0.082954 0.112472 -0.023707
					CHANNELS 3 Zrotation Yrotation Xrotation
					JOINT rshoulder
					{
						OFFSET -0.113228 0.046853 -0.008472
						CHANNELS 3 Zrotation Yrotation Xrotation
						JOINT relbow
						{
							OFFSET -0.260127 -0.014369 -0.031269
							CHANNELS 3 Zrotation Yrotation Xrotation
							JOINT rwrist
							{
								OFFSET -0.269108 0.006794 -0.006027
								CHANNELS 3 Zrotation Yrotation Xrotation
								End Site
								{
									OFFSET 0.000000 0.000000 0.000000
								}
							}
						}
					}
				}
			}
		}
	}
}
MOTION
Frames: 13
Frame Time: 0.033333
0.369920 0.747708 0.978388 -105.908720 1.684159 92.604566 3.639830 -9.408063 -19.969318 -7.119764 2.046233 26.845901 16.149215 17.448578 -7.866455 0.000000 -0.000000 0.000000 -13.201383 2.180812 6.687668 1.607471 9.120285 91.183608 6.509818 -12.074781 37.709313 0.000000 -0.000000 0.000000 -7.814054 13.882077 4.305595 3.998995 3.991962 7.710727 0.797591 6.279529 -1.520101 2.219306 -10.080920 11.921909 6.204704 -5.564430 7.676713 -16.153748 -0.172293 8.201259 -55.200691 10.654647 2.733106 5.128600 -42.366109 24.791592 3.859810 2.521803 2.164399 16.997560 10.905477 5.206994 57.065189 7.394251 8.581668 -22.602783 42.161701 -0.887422 4.920372 -5.378736 2.605996 
0.351773 0.742089 0.979214 -104.147961 1.426683 92.482461 2.056450 -10.104776 -18.611108 -7.334714 1.724929 26.483003 17.749328 18.148391 -8.017396 0.000000 -0.000000 0.000000 -11.892990 3.627195 5.148501 3.096938 8.950879 98.274197 4.843242 -13.935956 38.468499 0.000000 -0.000000 0.000000 -7.609966 13.235020 3.858147 5.207958 4.109851 7.770526 1.089640 5.535157 -0.696992 1.784518 -11.474165 13.116647 5.875893 -5.198378 7.813066 -16.052546 0.361645 9.154422 -53.303985 10.386105 2.826995 3.494589 -44.675095 24.983119 3.703295 2.078105 2.176864 16.792135 8.992566 4.882925 56.803407 4.874734 7.940544 -23.603782 40.495071 -3.789064 6.921944 -5.037794 2.464998 
0.335500 0.736095 0.980156 -101.266922 0.799458 92.095149 0.332858 -10.717451 -17.410719 -8.305181 2.085712 25.932957 18.682785 18.633911 -7.610544 0.000000 -0.000000 0.000000 -10.756749 4.846166 2.547847 4.098258 7.958171 103.743772 3.637723 -15.471590 39.139576 0.000000 -0.000000 0.000000 -7.442904 11.815444 4.176599 6.289010 3.285573 7.889596 1.389271 4.700922 -0.195596 1.353093 -12.152113 13.714570 5.499032 -5.191004 7.752485 -15.941600 1.021546 9.485343 -50.764394 9.950806 3.059271 2.205946 -47.418262 23.940186 2.857771 1.424547 2.396381 17.002646 6.616021 4.478189 56.820503 1.846603 7.344697 -24.975048 38.039775 -8.532962 6.723595 -5.411355 1.729871 
0.319932 0.729576 0.980589 -97.535263 0.272953 91.374487 -2.345674 -10.524351 -15.072743 -8.512709 0.655052 24.668834 20.122534 19.010342 -7.975449 0.000000 -0.000000 0.000000 -9.349238 5.583105 -1.145680 4.403621 6.763796 106.674554 3.600231 -16.335335 38.432759 0.000000 -0.000000 0.000000 -6.734123 9.369126 5.079376 7.144465 1.886603 7.580397 1.605753 3.716961 0.504922 0.950579 -11.910949 14.667909 4.866014 -5.288981 7.144590 -15.733679 1.854662 9.383884 -48.131008 8.909690 3.492856 1.375909 -49.768553 23.372182 3.038199 0.830085 2.825051 17.820747 3.736698 4.291733 56.504495 -0.881542 6.568656 -25.519009 34.579235 -12.116860 3.840440 -6.281660 2.140875 
0.305551 0.723623 0.979844 -94.042057 -0.062114 90.324307 -4.177124 -10.845091 -12.438512 -8.858276 -1.518101 24.018956 20.834500 19.305211 -8.819714 0.000000 -0.000000 0.000000 -8.527949 6.517753 -7.113079 4.611087 5.115072 106.401684 5.015723 -17.018606 37.658723 0.000000 -0.000000 0.000000 -6.054211 6.620522 6.296530 8.052451 0.607803 6.759971 1.838889 2.404496 1.634205 0.705301 -11.149630 15.321466 3.910649 -5.496578 7.056596 -15.296534 2.591140 9.282539 -46.263711 6.543178 3.890412 2.224452 -51.107573 21.490949 3.586242 0.675728 2.988027 18.665340 0.528089 3.873180 56.102104 -3.152100 6.059612 -25.696476 30.084720 -14.125821 2.552587 -6.499699 3.814128 
0.292737 0.720092 0.979322 -91.521216 -0.185104 88.147863 -5.017753 -10.727153 -8.781341 -9.871571 -5.074994 23.873873 20.077226 19.505239 -10.122843 0.000000 -0.000000 0.000000 -8.523204 7.874720 -13.948999 4.163514 2.966918 101.904435 4.294865 -16.670171 33.174669 0.000000 -0.000000 0.000000 -5.487711 3.935430 8.668677 8.674744 -0.346188 6.700521 2.128305 1.165205 2.562065 0.727382 -9.557744 15.906846 3.262290 -5.961078 6.245651 -15.073414 2.653841 8.731613 -44.479470 3.573501 4.260436 4.300804 -51.935297 17.421608 4.209560 1.253447 1.655409 19.479915 -1.891809 3.621335 56.125827 -5.339526 5.437990 -25.386470 26.176860 -15.790527 1.167986 -7.574113 3.900229 
0.281419 0.717728 0.979304 -90.455778 0.100417 84.992225 -5.881458 -9.283129 -3.857740 -9.881867 -8.756494 23.387910 18.580359 19.543575 -11.819382 0.000000 -0.000000 0.000000 -9.388174 8.410439 -21.198776 1.801550 1.129196 92.379171 4.636243 -17.216446 24.067030 0.000000 -0.000000 0.000000 -4.335513 1.397280 12.046681 8.560641 -0.835575 7.132758 2.357069 -0.240924 3.288558 0.261269 -7.696675 16.472070 1.990610 -5.510451 6.261846 -15.086339 2.124314 8.288137 -43.042981 0.208290 3.878404 7.414657 -52.237758 13.070463 4.227809 0.989343 1.257434 19.839398 -2.908678 3.742601 57.363207 -7.490176 5.068126 -25.714598 23.091313 -17.397150 1.378452 -8.431951 4.447365 
0.272618 0.716346 0.980661 -90.495231 1.271789 82.261176 -5.641020 -7.001513 0.047908 -9.131837 -11.127125 23.347808 16.944165 19.338838 -13.224725 0.000000 -0.000000 0.000000 -9.391112 7.455695 -27.793056 -1.649533 -1.838207 76.432207 5.097211 -17.120576 19.001478 0.000000 -0.000000 0.000000 -2.529524 -0.984578 15.533056 8.119118 -1.126425 6.845409 2.724574 -1.224008 4.432742 -0.460623 -5.397311 16.642563 1.586299 -4.759595 6.432415 -15.087482 1.376918 7.297100 -42.512928 -3.680635 3.613993 10.211374 -51.953646 10.684432 4.602225 0.263313 2.101097 19.976393 -4.391370 4.131244 58.285097 -9.101848 4.455593 -24.564207 21.733364 -15.755727 1.925880 -8.316873 3.248714 
0.265239 0.716779 0.982381 -91.255988 2.448114 80.365215 -4.538615 -5.159303 2.881909 -8.634158 -12.148553 23.055084 15.394982 18.634133 -14.325928 0.000000 -0.000000 0.000000 -8.759326 6.055963 -32.448847 -3.263307 -6.520510 55.968152 6.318542 -17.754731 18.124722 0.000000 -0.000000 0.000000 -1.474080 -2.749750 18.257253 7.839760 -1.539207 6.704938 3.405445 -2.033147 5.088647 -1.731007 -3.375965 16.964789 1.754166 -3.586695 6.468893 -14.915252 0.870829 6.378301 -42.863041 -7.893268 3.603239 13.193463 -51.817702 7.971471 5.122900 -0.335792 2.450281 20.089329 -5.665505 4.575651 59.201120 -10.514898 4.544027 -23.571414 20.962069 -13.527251 2.722084 -8.644050 2.902232 
0.258736 0.718438 0.982652 -92.103667 3.390732 79.785924 -3.245603 -3.417276 4.116261 -8.198157 -12.432747 22.715357 14.601980 17.633822 -15.385872 0.000000 -0.000000 0.000000 -7.362004 5.207836 -36.083714 -0.597716 -7.722398 33.004835 7.412017 -15.168648 17.543032 0.000000 -0.000000 0.000000 -1.002952 -3.975143 19.546655 7.647712 -2.208300 6.641646 3.953122 -2.887881 5.562875 -2.530626 -1.025160 16.274738 2.001580 -2.992634 7.481619 -14.776062 0.780654 5.394467 -43.572762 -12.354982 3.623367 16.829798 -52.306471 3.941861 5.169959 -0.422673 2.489630 20.494012 -7.235453 5.280679 60.082695 -11.286451 5.193824 -22.878126 21.069671 -10.264155 3.316119 -8.471074 3.383415 
0.251494 0.720838 0.982707 -92.242117 4.131374 80.061081 -2.019045 -1.504060 4.383937 -7.502267 -12.629232 22.504811 13.701370 16.066331 -16.772640 0.000000 -0.000000 0.000000 -5.591894 4.136853 -39.791665 1.236572 -6.029422 12.447538 8.171062 -11.509611 13.290053 0.000000 -0.000000 0.000000 -0.617625 -5.255034 20.104628 7.326242 -3.267904 6.056139 4.223459 -3.715818 5.879921 -3.290543 1.214543 15.837646 2.427466 -2.370228 8.302776 -14.524161 0.560955 4.828153 -44.661068 -15.911098 3.707545 20.683259 -53.616615 1.250843 4.978781 -1.256094 1.833429 20.644245 -8.443746 6.326499 61.493237 -11.584997 5.058325 -22.578960 20.893720 -6.682790 5.037406 -8.642568 3.379065 
0.244677 0.724127 0.983057 -91.305985 5.219766 80.794558 -0.250105 -0.770645 3.684723 -7.629031 -13.149034 23.257923 13.447981 14.968086 -17.733101 0.000000 -0.000000 0.000000 -5.658264 3.571809 -43.821248 3.094410 -3.515385 -1.713475 6.262144 -9.115070 8.298652 0.000000 -0.000000 0.000000 0.470688 -6.688357 20.037514 7.158014 -4.321361 5.389250 4.196685 -4.675744 6.487254 -4.205299 2.543468 14.937131 2.897513 -1.676810 8.856381 -14.008361 -0.327566 4.505161 -46.362071 -19.700709 3.528062 23.613837 -55.325419 -0.447918 4.344515 -0.550106 1.427840 20.262679 -9.259393 7.720209 63.370653 -11.328318 4.259340 -22.262691 20.751404 -3.682906 6.996698 -8.598969 2.484240 
0.234029 0.728309 0.985064 -90.877623 5.783372 79.576899 0.586863 -0.258758 6.185779 -7.299167 -14.550526 22.764289 12.839553 15.195082 -18.424526 0.000000 -0.000000 0.000000 -6.532461 3.614530 -50.111245 3.096070 -8.491700 3.019046 6.471518 -8.932061 4.540429 0.000000 -0.000000 0.000000 0.620273 -8.179555 22.015154 6.899456 -3.960913 5.126947 4.159729 -5.230364 6.165392 -4.275595 3.659410 14.601615 2.949429 -1.773869 8.949901 -13.512438 -1.787557 4.276107 -48.299831 -22.479172 4.470227 26.544718 -56.823509 -2.076101 3.519430 -1.138432 1.573925 20.104739 -9.117381 8.444901 65.152294 -12.244972 3.691148 -22.235916 20.601706 -2.730598 7.782930 -7.862716 1.768014 
